<mxfile host="app.diagrams.net" modified="2021-09-15T09:54:37.244Z" agent="5.0 (Windows NT 6.1; Win64; x64) AppleWebKit/537.36 (KHTML, like Gecko) Chrome/93.0.4577.63 Safari/537.36" etag="njj4E1RspZWPFcahH1nz" version="15.2.7" type="github">
  <diagram id="ZIN-xYuzpI-XV8i7ytl3" name="Page-1">
    <mxGraphModel dx="1673" dy="1038" grid="1" gridSize="10" guides="1" tooltips="1" connect="1" arrows="1" fold="1" page="1" pageScale="1" pageWidth="2339" pageHeight="3300" math="0" shadow="0">
      <root>
        <mxCell id="0" />
        <mxCell id="1" parent="0" />
        <mxCell id="FY8OjrovpsQSVtT9R5It-1" value="Таблица" style="shape=cylinder3;whiteSpace=wrap;html=1;boundedLbl=1;backgroundOutline=1;size=15;flipV=0;" vertex="1" parent="1">
          <mxGeometry x="210" y="510" width="60" height="80" as="geometry" />
        </mxCell>
        <mxCell id="FY8OjrovpsQSVtT9R5It-2" value="" style="shape=table;html=1;whiteSpace=wrap;startSize=0;container=1;collapsible=0;childLayout=tableLayout;" vertex="1" parent="1">
          <mxGeometry x="480" y="220" width="1188" height="130" as="geometry" />
        </mxCell>
        <mxCell id="FY8OjrovpsQSVtT9R5It-3" value="" style="shape=partialRectangle;html=1;whiteSpace=wrap;collapsible=0;dropTarget=0;pointerEvents=0;fillColor=none;top=0;left=0;bottom=0;right=0;points=[[0,0.5],[1,0.5]];portConstraint=eastwest;" vertex="1" parent="FY8OjrovpsQSVtT9R5It-2">
          <mxGeometry width="1188" height="43" as="geometry" />
        </mxCell>
        <mxCell id="FY8OjrovpsQSVtT9R5It-4" value="Сущности" style="shape=partialRectangle;html=1;whiteSpace=wrap;connectable=0;fillColor=none;top=0;left=0;bottom=0;right=0;overflow=hidden;pointerEvents=1;fontStyle=1;fontSize=15;" vertex="1" parent="FY8OjrovpsQSVtT9R5It-3">
          <mxGeometry width="95" height="43" as="geometry" />
        </mxCell>
        <mxCell id="FY8OjrovpsQSVtT9R5It-5" value="TB_NAME" style="shape=partialRectangle;html=1;whiteSpace=wrap;connectable=0;fillColor=none;top=0;left=0;bottom=0;right=0;overflow=hidden;pointerEvents=1;" vertex="1" parent="FY8OjrovpsQSVtT9R5It-3">
          <mxGeometry x="95" width="77" height="43" as="geometry" />
        </mxCell>
        <mxCell id="FY8OjrovpsQSVtT9R5It-6" value="TB_ID" style="shape=partialRectangle;html=1;whiteSpace=wrap;connectable=0;fillColor=none;top=0;left=0;bottom=0;right=0;overflow=hidden;pointerEvents=1;" vertex="1" parent="FY8OjrovpsQSVtT9R5It-3">
          <mxGeometry x="172" width="62" height="43" as="geometry" />
        </mxCell>
        <mxCell id="FY8OjrovpsQSVtT9R5It-53" value="GOSB_NAME" style="shape=partialRectangle;html=1;whiteSpace=wrap;connectable=0;fillColor=none;top=0;left=0;bottom=0;right=0;overflow=hidden;pointerEvents=1;" vertex="1" parent="FY8OjrovpsQSVtT9R5It-3">
          <mxGeometry x="234" width="88" height="43" as="geometry" />
        </mxCell>
        <mxCell id="FY8OjrovpsQSVtT9R5It-56" value="GOSB_ID" style="shape=partialRectangle;html=1;whiteSpace=wrap;connectable=0;fillColor=none;top=0;left=0;bottom=0;right=0;overflow=hidden;pointerEvents=1;" vertex="1" parent="FY8OjrovpsQSVtT9R5It-3">
          <mxGeometry x="322" width="79" height="43" as="geometry" />
        </mxCell>
        <mxCell id="FY8OjrovpsQSVtT9R5It-59" value="RM,PODR" style="shape=partialRectangle;html=1;whiteSpace=wrap;connectable=0;fillColor=none;top=0;left=0;bottom=0;right=0;overflow=hidden;pointerEvents=1;" vertex="1" parent="FY8OjrovpsQSVtT9R5It-3">
          <mxGeometry x="401" width="98" height="43" as="geometry" />
        </mxCell>
        <mxCell id="FY8OjrovpsQSVtT9R5It-97" value="RM_ID,PODR_ID" style="shape=partialRectangle;html=1;whiteSpace=wrap;connectable=0;fillColor=none;top=0;left=0;bottom=0;right=0;overflow=hidden;pointerEvents=1;" vertex="1" parent="FY8OjrovpsQSVtT9R5It-3">
          <mxGeometry x="499" width="116" height="43" as="geometry" />
        </mxCell>
        <mxCell id="FY8OjrovpsQSVtT9R5It-94" value="TP" style="shape=partialRectangle;html=1;whiteSpace=wrap;connectable=0;fillColor=none;top=0;left=0;bottom=0;right=0;overflow=hidden;pointerEvents=1;" vertex="1" parent="FY8OjrovpsQSVtT9R5It-3">
          <mxGeometry x="615" width="95" height="43" as="geometry" />
        </mxCell>
        <mxCell id="FY8OjrovpsQSVtT9R5It-222" value="TP_ID" style="shape=partialRectangle;html=1;whiteSpace=wrap;connectable=0;fillColor=none;top=0;left=0;bottom=0;right=0;overflow=hidden;pointerEvents=1;" vertex="1" parent="FY8OjrovpsQSVtT9R5It-3">
          <mxGeometry x="710" width="95" height="43" as="geometry" />
        </mxCell>
        <mxCell id="FY8OjrovpsQSVtT9R5It-88" value="KM" style="shape=partialRectangle;html=1;whiteSpace=wrap;connectable=0;fillColor=none;top=0;left=0;bottom=0;right=0;overflow=hidden;pointerEvents=1;" vertex="1" parent="FY8OjrovpsQSVtT9R5It-3">
          <mxGeometry x="805" width="99" height="43" as="geometry" />
        </mxCell>
        <mxCell id="FY8OjrovpsQSVtT9R5It-106" value="Tab_number" style="shape=partialRectangle;html=1;whiteSpace=wrap;connectable=0;fillColor=none;top=0;left=0;bottom=0;right=0;overflow=hidden;pointerEvents=1;" vertex="1" parent="FY8OjrovpsQSVtT9R5It-3">
          <mxGeometry x="904" width="71" height="43" as="geometry" />
        </mxCell>
        <mxCell id="FY8OjrovpsQSVtT9R5It-193" value="Sum_strah" style="shape=partialRectangle;html=1;whiteSpace=wrap;connectable=0;fillColor=none;top=0;left=0;bottom=0;right=0;overflow=hidden;pointerEvents=1;" vertex="1" parent="FY8OjrovpsQSVtT9R5It-3">
          <mxGeometry x="975" width="71" height="43" as="geometry" />
        </mxCell>
        <mxCell id="FY8OjrovpsQSVtT9R5It-196" value="Count_Strah" style="shape=partialRectangle;html=1;whiteSpace=wrap;connectable=0;fillColor=none;top=0;left=0;bottom=0;right=0;overflow=hidden;pointerEvents=1;" vertex="1" parent="FY8OjrovpsQSVtT9R5It-3">
          <mxGeometry x="1046" width="71" height="43" as="geometry" />
        </mxCell>
        <mxCell id="FY8OjrovpsQSVtT9R5It-230" value="NEXT_LVL" style="shape=partialRectangle;html=1;whiteSpace=wrap;connectable=0;fillColor=none;top=0;left=0;bottom=0;right=0;overflow=hidden;pointerEvents=1;" vertex="1" parent="FY8OjrovpsQSVtT9R5It-3">
          <mxGeometry x="1117" width="71" height="43" as="geometry" />
        </mxCell>
        <mxCell id="FY8OjrovpsQSVtT9R5It-7" value="" style="shape=partialRectangle;html=1;whiteSpace=wrap;collapsible=0;dropTarget=0;pointerEvents=0;fillColor=none;top=0;left=0;bottom=0;right=0;points=[[0,0.5],[1,0.5]];portConstraint=eastwest;" vertex="1" parent="FY8OjrovpsQSVtT9R5It-2">
          <mxGeometry y="43" width="1188" height="44" as="geometry" />
        </mxCell>
        <mxCell id="FY8OjrovpsQSVtT9R5It-8" value="Тип данных" style="shape=partialRectangle;html=1;whiteSpace=wrap;connectable=0;fillColor=none;top=0;left=0;bottom=0;right=0;overflow=hidden;pointerEvents=1;fontStyle=1;fontSize=14;" vertex="1" parent="FY8OjrovpsQSVtT9R5It-7">
          <mxGeometry width="95" height="44" as="geometry" />
        </mxCell>
        <mxCell id="FY8OjrovpsQSVtT9R5It-9" value="Varchar2" style="shape=partialRectangle;html=1;whiteSpace=wrap;connectable=0;fillColor=none;top=0;left=0;bottom=0;right=0;overflow=hidden;pointerEvents=1;" vertex="1" parent="FY8OjrovpsQSVtT9R5It-7">
          <mxGeometry x="95" width="77" height="44" as="geometry" />
        </mxCell>
        <mxCell id="FY8OjrovpsQSVtT9R5It-10" value="NUMBER" style="shape=partialRectangle;html=1;whiteSpace=wrap;connectable=0;fillColor=none;top=0;left=0;bottom=0;right=0;overflow=hidden;pointerEvents=1;" vertex="1" parent="FY8OjrovpsQSVtT9R5It-7">
          <mxGeometry x="172" width="62" height="44" as="geometry" />
        </mxCell>
        <mxCell id="FY8OjrovpsQSVtT9R5It-54" value="&lt;span&gt;Varchar2&lt;/span&gt;" style="shape=partialRectangle;html=1;whiteSpace=wrap;connectable=0;fillColor=none;top=0;left=0;bottom=0;right=0;overflow=hidden;pointerEvents=1;" vertex="1" parent="FY8OjrovpsQSVtT9R5It-7">
          <mxGeometry x="234" width="88" height="44" as="geometry" />
        </mxCell>
        <mxCell id="FY8OjrovpsQSVtT9R5It-57" value="&lt;span&gt;NUMBER&lt;/span&gt;" style="shape=partialRectangle;html=1;whiteSpace=wrap;connectable=0;fillColor=none;top=0;left=0;bottom=0;right=0;overflow=hidden;pointerEvents=1;" vertex="1" parent="FY8OjrovpsQSVtT9R5It-7">
          <mxGeometry x="322" width="79" height="44" as="geometry" />
        </mxCell>
        <mxCell id="FY8OjrovpsQSVtT9R5It-60" value="&lt;span&gt;Varchar2&lt;/span&gt;" style="shape=partialRectangle;html=1;whiteSpace=wrap;connectable=0;fillColor=none;top=0;left=0;bottom=0;right=0;overflow=hidden;pointerEvents=1;" vertex="1" parent="FY8OjrovpsQSVtT9R5It-7">
          <mxGeometry x="401" width="98" height="44" as="geometry" />
        </mxCell>
        <mxCell id="FY8OjrovpsQSVtT9R5It-98" value="&lt;span&gt;Varchar2&lt;/span&gt;" style="shape=partialRectangle;html=1;whiteSpace=wrap;connectable=0;fillColor=none;top=0;left=0;bottom=0;right=0;overflow=hidden;pointerEvents=1;" vertex="1" parent="FY8OjrovpsQSVtT9R5It-7">
          <mxGeometry x="499" width="116" height="44" as="geometry" />
        </mxCell>
        <mxCell id="FY8OjrovpsQSVtT9R5It-95" value="&lt;span&gt;Varchar2&lt;/span&gt;" style="shape=partialRectangle;html=1;whiteSpace=wrap;connectable=0;fillColor=none;top=0;left=0;bottom=0;right=0;overflow=hidden;pointerEvents=1;" vertex="1" parent="FY8OjrovpsQSVtT9R5It-7">
          <mxGeometry x="615" width="95" height="44" as="geometry" />
        </mxCell>
        <mxCell id="FY8OjrovpsQSVtT9R5It-223" value="NUMBER" style="shape=partialRectangle;html=1;whiteSpace=wrap;connectable=0;fillColor=none;top=0;left=0;bottom=0;right=0;overflow=hidden;pointerEvents=1;" vertex="1" parent="FY8OjrovpsQSVtT9R5It-7">
          <mxGeometry x="710" width="95" height="44" as="geometry" />
        </mxCell>
        <mxCell id="FY8OjrovpsQSVtT9R5It-89" value="&lt;span&gt;Varchar2&lt;/span&gt;" style="shape=partialRectangle;html=1;whiteSpace=wrap;connectable=0;fillColor=none;top=0;left=0;bottom=0;right=0;overflow=hidden;pointerEvents=1;" vertex="1" parent="FY8OjrovpsQSVtT9R5It-7">
          <mxGeometry x="805" width="99" height="44" as="geometry" />
        </mxCell>
        <mxCell id="FY8OjrovpsQSVtT9R5It-107" value="&lt;span&gt;NUMBER&lt;/span&gt;" style="shape=partialRectangle;html=1;whiteSpace=wrap;connectable=0;fillColor=none;top=0;left=0;bottom=0;right=0;overflow=hidden;pointerEvents=1;" vertex="1" parent="FY8OjrovpsQSVtT9R5It-7">
          <mxGeometry x="904" width="71" height="44" as="geometry" />
        </mxCell>
        <mxCell id="FY8OjrovpsQSVtT9R5It-194" value="&lt;span&gt;NUMBER&lt;/span&gt;" style="shape=partialRectangle;html=1;whiteSpace=wrap;connectable=0;fillColor=none;top=0;left=0;bottom=0;right=0;overflow=hidden;pointerEvents=1;" vertex="1" parent="FY8OjrovpsQSVtT9R5It-7">
          <mxGeometry x="975" width="71" height="44" as="geometry" />
        </mxCell>
        <mxCell id="FY8OjrovpsQSVtT9R5It-197" value="&lt;span&gt;NUMBER&lt;/span&gt;" style="shape=partialRectangle;html=1;whiteSpace=wrap;connectable=0;fillColor=none;top=0;left=0;bottom=0;right=0;overflow=hidden;pointerEvents=1;" vertex="1" parent="FY8OjrovpsQSVtT9R5It-7">
          <mxGeometry x="1046" width="71" height="44" as="geometry" />
        </mxCell>
        <mxCell id="FY8OjrovpsQSVtT9R5It-231" value="Varchar2" style="shape=partialRectangle;html=1;whiteSpace=wrap;connectable=0;fillColor=none;top=0;left=0;bottom=0;right=0;overflow=hidden;pointerEvents=1;" vertex="1" parent="FY8OjrovpsQSVtT9R5It-7">
          <mxGeometry x="1117" width="71" height="44" as="geometry" />
        </mxCell>
        <mxCell id="FY8OjrovpsQSVtT9R5It-11" value="" style="shape=partialRectangle;html=1;whiteSpace=wrap;collapsible=0;dropTarget=0;pointerEvents=0;fillColor=none;top=0;left=0;bottom=0;right=0;points=[[0,0.5],[1,0.5]];portConstraint=eastwest;" vertex="1" parent="FY8OjrovpsQSVtT9R5It-2">
          <mxGeometry y="87" width="1188" height="43" as="geometry" />
        </mxCell>
        <mxCell id="FY8OjrovpsQSVtT9R5It-12" value="Пример" style="shape=partialRectangle;html=1;whiteSpace=wrap;connectable=0;fillColor=none;top=0;left=0;bottom=0;right=0;overflow=hidden;pointerEvents=1;fontStyle=1;fontSize=14;" vertex="1" parent="FY8OjrovpsQSVtT9R5It-11">
          <mxGeometry width="95" height="43" as="geometry" />
        </mxCell>
        <mxCell id="FY8OjrovpsQSVtT9R5It-13" value="Уральский банк" style="shape=partialRectangle;html=1;whiteSpace=wrap;connectable=0;fillColor=none;top=0;left=0;bottom=0;right=0;overflow=hidden;pointerEvents=1;" vertex="1" parent="FY8OjrovpsQSVtT9R5It-11">
          <mxGeometry x="95" width="77" height="43" as="geometry" />
        </mxCell>
        <mxCell id="FY8OjrovpsQSVtT9R5It-14" value="16" style="shape=partialRectangle;html=1;whiteSpace=wrap;connectable=0;fillColor=none;top=0;left=0;bottom=0;right=0;overflow=hidden;pointerEvents=1;" vertex="1" parent="FY8OjrovpsQSVtT9R5It-11">
          <mxGeometry x="172" width="62" height="43" as="geometry" />
        </mxCell>
        <mxCell id="FY8OjrovpsQSVtT9R5It-55" value="Центральный аппарат" style="shape=partialRectangle;html=1;whiteSpace=wrap;connectable=0;fillColor=none;top=0;left=0;bottom=0;right=0;overflow=hidden;pointerEvents=1;" vertex="1" parent="FY8OjrovpsQSVtT9R5It-11">
          <mxGeometry x="234" width="88" height="43" as="geometry" />
        </mxCell>
        <mxCell id="FY8OjrovpsQSVtT9R5It-58" value="0" style="shape=partialRectangle;html=1;whiteSpace=wrap;connectable=0;fillColor=none;top=0;left=0;bottom=0;right=0;overflow=hidden;pointerEvents=1;" vertex="1" parent="FY8OjrovpsQSVtT9R5It-11">
          <mxGeometry x="322" width="79" height="43" as="geometry" />
        </mxCell>
        <mxCell id="FY8OjrovpsQSVtT9R5It-61" value="Петрова Татьяна Николаевна" style="shape=partialRectangle;html=1;whiteSpace=wrap;connectable=0;fillColor=none;top=0;left=0;bottom=0;right=0;overflow=hidden;pointerEvents=1;" vertex="1" parent="FY8OjrovpsQSVtT9R5It-11">
          <mxGeometry x="401" width="98" height="43" as="geometry" />
        </mxCell>
        <mxCell id="FY8OjrovpsQSVtT9R5It-99" value="1-af354Av" style="shape=partialRectangle;html=1;whiteSpace=wrap;connectable=0;fillColor=none;top=0;left=0;bottom=0;right=0;overflow=hidden;pointerEvents=1;" vertex="1" parent="FY8OjrovpsQSVtT9R5It-11">
          <mxGeometry x="499" width="116" height="43" as="geometry" />
        </mxCell>
        <mxCell id="FY8OjrovpsQSVtT9R5It-96" value="1/26" style="shape=partialRectangle;html=1;whiteSpace=wrap;connectable=0;fillColor=none;top=0;left=0;bottom=0;right=0;overflow=hidden;pointerEvents=1;" vertex="1" parent="FY8OjrovpsQSVtT9R5It-11">
          <mxGeometry x="615" width="95" height="43" as="geometry" />
        </mxCell>
        <mxCell id="FY8OjrovpsQSVtT9R5It-224" value="126" style="shape=partialRectangle;html=1;whiteSpace=wrap;connectable=0;fillColor=none;top=0;left=0;bottom=0;right=0;overflow=hidden;pointerEvents=1;" vertex="1" parent="FY8OjrovpsQSVtT9R5It-11">
          <mxGeometry x="710" width="95" height="43" as="geometry" />
        </mxCell>
        <mxCell id="FY8OjrovpsQSVtT9R5It-90" value="Петрова Ирина Александровна" style="shape=partialRectangle;html=1;whiteSpace=wrap;connectable=0;fillColor=none;top=0;left=0;bottom=0;right=0;overflow=hidden;pointerEvents=1;" vertex="1" parent="FY8OjrovpsQSVtT9R5It-11">
          <mxGeometry x="805" width="99" height="43" as="geometry" />
        </mxCell>
        <mxCell id="FY8OjrovpsQSVtT9R5It-108" value="7890023" style="shape=partialRectangle;html=1;whiteSpace=wrap;connectable=0;fillColor=none;top=0;left=0;bottom=0;right=0;overflow=hidden;pointerEvents=1;" vertex="1" parent="FY8OjrovpsQSVtT9R5It-11">
          <mxGeometry x="904" width="71" height="43" as="geometry" />
        </mxCell>
        <mxCell id="FY8OjrovpsQSVtT9R5It-195" value="500000" style="shape=partialRectangle;html=1;whiteSpace=wrap;connectable=0;fillColor=none;top=0;left=0;bottom=0;right=0;overflow=hidden;pointerEvents=1;" vertex="1" parent="FY8OjrovpsQSVtT9R5It-11">
          <mxGeometry x="975" width="71" height="43" as="geometry" />
        </mxCell>
        <mxCell id="FY8OjrovpsQSVtT9R5It-198" value="2300" style="shape=partialRectangle;html=1;whiteSpace=wrap;connectable=0;fillColor=none;top=0;left=0;bottom=0;right=0;overflow=hidden;pointerEvents=1;" vertex="1" parent="FY8OjrovpsQSVtT9R5It-11">
          <mxGeometry x="1046" width="71" height="43" as="geometry" />
        </mxCell>
        <mxCell id="FY8OjrovpsQSVtT9R5It-232" value="TB" style="shape=partialRectangle;html=1;whiteSpace=wrap;connectable=0;fillColor=none;top=0;left=0;bottom=0;right=0;overflow=hidden;pointerEvents=1;" vertex="1" parent="FY8OjrovpsQSVtT9R5It-11">
          <mxGeometry x="1117" width="71" height="43" as="geometry" />
        </mxCell>
        <mxCell id="FY8OjrovpsQSVtT9R5It-41" value="Витрина СУБД" style="text;strokeColor=none;fillColor=none;html=1;fontSize=24;fontStyle=1;verticalAlign=middle;align=center;" vertex="1" parent="1">
          <mxGeometry x="580" y="160" width="100" height="40" as="geometry" />
        </mxCell>
        <mxCell id="FY8OjrovpsQSVtT9R5It-128" value="" style="shape=table;html=1;whiteSpace=wrap;startSize=0;container=1;collapsible=0;childLayout=tableLayout;" vertex="1" parent="1">
          <mxGeometry x="290" y="520" width="1260" height="120" as="geometry" />
        </mxCell>
        <mxCell id="FY8OjrovpsQSVtT9R5It-129" value="" style="shape=partialRectangle;html=1;whiteSpace=wrap;collapsible=0;dropTarget=0;pointerEvents=0;fillColor=none;top=0;left=0;bottom=0;right=0;points=[[0,0.5],[1,0.5]];portConstraint=eastwest;" vertex="1" parent="FY8OjrovpsQSVtT9R5It-128">
          <mxGeometry width="1260" height="40" as="geometry" />
        </mxCell>
        <mxCell id="FY8OjrovpsQSVtT9R5It-130" value="Сущности" style="shape=partialRectangle;html=1;whiteSpace=wrap;connectable=0;fillColor=none;top=0;left=0;bottom=0;right=0;overflow=hidden;pointerEvents=1;fontStyle=1;fontSize=15;" vertex="1" parent="FY8OjrovpsQSVtT9R5It-129">
          <mxGeometry width="90" height="40" as="geometry" />
        </mxCell>
        <mxCell id="FY8OjrovpsQSVtT9R5It-140" value="Segment" style="shape=partialRectangle;html=1;whiteSpace=wrap;connectable=0;fillColor=none;top=0;left=0;bottom=0;right=0;overflow=hidden;pointerEvents=1;" vertex="1" parent="FY8OjrovpsQSVtT9R5It-129">
          <mxGeometry x="90" width="70" height="40" as="geometry" />
        </mxCell>
        <mxCell id="FY8OjrovpsQSVtT9R5It-141" value="Segment_id" style="shape=partialRectangle;html=1;whiteSpace=wrap;connectable=0;fillColor=none;top=0;left=0;bottom=0;right=0;overflow=hidden;pointerEvents=1;" vertex="1" parent="FY8OjrovpsQSVtT9R5It-129">
          <mxGeometry x="160" width="100" height="40" as="geometry" />
        </mxCell>
        <mxCell id="FY8OjrovpsQSVtT9R5It-142" value="Channel" style="shape=partialRectangle;html=1;whiteSpace=wrap;connectable=0;fillColor=none;top=0;left=0;bottom=0;right=0;overflow=hidden;pointerEvents=1;" vertex="1" parent="FY8OjrovpsQSVtT9R5It-129">
          <mxGeometry x="260" width="100" height="40" as="geometry" />
        </mxCell>
        <mxCell id="FY8OjrovpsQSVtT9R5It-143" value="Channel_id" style="shape=partialRectangle;html=1;whiteSpace=wrap;connectable=0;fillColor=none;top=0;left=0;bottom=0;right=0;overflow=hidden;pointerEvents=1;" vertex="1" parent="FY8OjrovpsQSVtT9R5It-129">
          <mxGeometry x="360" width="100" height="40" as="geometry" />
        </mxCell>
        <mxCell id="FY8OjrovpsQSVtT9R5It-144" value="Product" style="shape=partialRectangle;html=1;whiteSpace=wrap;connectable=0;fillColor=none;top=0;left=0;bottom=0;right=0;overflow=hidden;pointerEvents=1;" vertex="1" parent="FY8OjrovpsQSVtT9R5It-129">
          <mxGeometry x="460" width="100" height="40" as="geometry" />
        </mxCell>
        <mxCell id="FY8OjrovpsQSVtT9R5It-145" value="Product_id" style="shape=partialRectangle;html=1;whiteSpace=wrap;connectable=0;fillColor=none;top=0;left=0;bottom=0;right=0;overflow=hidden;pointerEvents=1;" vertex="1" parent="FY8OjrovpsQSVtT9R5It-129">
          <mxGeometry x="560" width="100" height="40" as="geometry" />
        </mxCell>
        <mxCell id="FY8OjrovpsQSVtT9R5It-181" value="Mes_name" style="shape=partialRectangle;html=1;whiteSpace=wrap;connectable=0;fillColor=none;top=0;left=0;bottom=0;right=0;overflow=hidden;pointerEvents=1;" vertex="1" parent="FY8OjrovpsQSVtT9R5It-129">
          <mxGeometry x="660" width="100" height="40" as="geometry" />
        </mxCell>
        <mxCell id="FY8OjrovpsQSVtT9R5It-184" value="Mes_id" style="shape=partialRectangle;html=1;whiteSpace=wrap;connectable=0;fillColor=none;top=0;left=0;bottom=0;right=0;overflow=hidden;pointerEvents=1;" vertex="1" parent="FY8OjrovpsQSVtT9R5It-129">
          <mxGeometry x="760" width="100" height="40" as="geometry" />
        </mxCell>
        <mxCell id="FY8OjrovpsQSVtT9R5It-187" value="Qv_name" style="shape=partialRectangle;html=1;whiteSpace=wrap;connectable=0;fillColor=none;top=0;left=0;bottom=0;right=0;overflow=hidden;pointerEvents=1;" vertex="1" parent="FY8OjrovpsQSVtT9R5It-129">
          <mxGeometry x="860" width="100" height="40" as="geometry" />
        </mxCell>
        <mxCell id="FY8OjrovpsQSVtT9R5It-190" value="Qv_id" style="shape=partialRectangle;html=1;whiteSpace=wrap;connectable=0;fillColor=none;top=0;left=0;bottom=0;right=0;overflow=hidden;pointerEvents=1;" vertex="1" parent="FY8OjrovpsQSVtT9R5It-129">
          <mxGeometry x="960" width="100" height="40" as="geometry" />
        </mxCell>
        <mxCell id="FY8OjrovpsQSVtT9R5It-205" value="LVL" style="shape=partialRectangle;html=1;whiteSpace=wrap;connectable=0;fillColor=none;top=0;left=0;bottom=0;right=0;overflow=hidden;pointerEvents=1;" vertex="1" parent="FY8OjrovpsQSVtT9R5It-129">
          <mxGeometry x="1060" width="100" height="40" as="geometry" />
        </mxCell>
        <mxCell id="FY8OjrovpsQSVtT9R5It-233" value="DB_ID" style="shape=partialRectangle;html=1;whiteSpace=wrap;connectable=0;fillColor=none;top=0;left=0;bottom=0;right=0;overflow=hidden;pointerEvents=1;" vertex="1" parent="FY8OjrovpsQSVtT9R5It-129">
          <mxGeometry x="1160" width="100" height="40" as="geometry" />
        </mxCell>
        <mxCell id="FY8OjrovpsQSVtT9R5It-146" value="" style="shape=partialRectangle;html=1;whiteSpace=wrap;collapsible=0;dropTarget=0;pointerEvents=0;fillColor=none;top=0;left=0;bottom=0;right=0;points=[[0,0.5],[1,0.5]];portConstraint=eastwest;" vertex="1" parent="FY8OjrovpsQSVtT9R5It-128">
          <mxGeometry y="40" width="1260" height="40" as="geometry" />
        </mxCell>
        <mxCell id="FY8OjrovpsQSVtT9R5It-147" value="Тип данных" style="shape=partialRectangle;html=1;whiteSpace=wrap;connectable=0;fillColor=none;top=0;left=0;bottom=0;right=0;overflow=hidden;pointerEvents=1;fontStyle=1;fontSize=14;" vertex="1" parent="FY8OjrovpsQSVtT9R5It-146">
          <mxGeometry width="90" height="40" as="geometry" />
        </mxCell>
        <mxCell id="FY8OjrovpsQSVtT9R5It-157" value="&lt;span&gt;Varchar2&lt;/span&gt;" style="shape=partialRectangle;html=1;whiteSpace=wrap;connectable=0;fillColor=none;top=0;left=0;bottom=0;right=0;overflow=hidden;pointerEvents=1;" vertex="1" parent="FY8OjrovpsQSVtT9R5It-146">
          <mxGeometry x="90" width="70" height="40" as="geometry" />
        </mxCell>
        <mxCell id="FY8OjrovpsQSVtT9R5It-158" value="&lt;span&gt;NUMBER&lt;/span&gt;" style="shape=partialRectangle;html=1;whiteSpace=wrap;connectable=0;fillColor=none;top=0;left=0;bottom=0;right=0;overflow=hidden;pointerEvents=1;" vertex="1" parent="FY8OjrovpsQSVtT9R5It-146">
          <mxGeometry x="160" width="100" height="40" as="geometry" />
        </mxCell>
        <mxCell id="FY8OjrovpsQSVtT9R5It-159" value="&lt;span&gt;Varchar2&lt;/span&gt;" style="shape=partialRectangle;html=1;whiteSpace=wrap;connectable=0;fillColor=none;top=0;left=0;bottom=0;right=0;overflow=hidden;pointerEvents=1;" vertex="1" parent="FY8OjrovpsQSVtT9R5It-146">
          <mxGeometry x="260" width="100" height="40" as="geometry" />
        </mxCell>
        <mxCell id="FY8OjrovpsQSVtT9R5It-160" value="&lt;span&gt;NUMBER&lt;/span&gt;" style="shape=partialRectangle;html=1;whiteSpace=wrap;connectable=0;fillColor=none;top=0;left=0;bottom=0;right=0;overflow=hidden;pointerEvents=1;" vertex="1" parent="FY8OjrovpsQSVtT9R5It-146">
          <mxGeometry x="360" width="100" height="40" as="geometry" />
        </mxCell>
        <mxCell id="FY8OjrovpsQSVtT9R5It-161" value="&lt;span&gt;Varchar2&lt;/span&gt;" style="shape=partialRectangle;html=1;whiteSpace=wrap;connectable=0;fillColor=none;top=0;left=0;bottom=0;right=0;overflow=hidden;pointerEvents=1;" vertex="1" parent="FY8OjrovpsQSVtT9R5It-146">
          <mxGeometry x="460" width="100" height="40" as="geometry" />
        </mxCell>
        <mxCell id="FY8OjrovpsQSVtT9R5It-162" value="&lt;span&gt;NUMBER&lt;/span&gt;" style="shape=partialRectangle;html=1;whiteSpace=wrap;connectable=0;fillColor=none;top=0;left=0;bottom=0;right=0;overflow=hidden;pointerEvents=1;" vertex="1" parent="FY8OjrovpsQSVtT9R5It-146">
          <mxGeometry x="560" width="100" height="40" as="geometry" />
        </mxCell>
        <mxCell id="FY8OjrovpsQSVtT9R5It-182" value="Varchar2" style="shape=partialRectangle;html=1;whiteSpace=wrap;connectable=0;fillColor=none;top=0;left=0;bottom=0;right=0;overflow=hidden;pointerEvents=1;" vertex="1" parent="FY8OjrovpsQSVtT9R5It-146">
          <mxGeometry x="660" width="100" height="40" as="geometry" />
        </mxCell>
        <mxCell id="FY8OjrovpsQSVtT9R5It-185" value="&lt;span&gt;NUMBER&lt;/span&gt;" style="shape=partialRectangle;html=1;whiteSpace=wrap;connectable=0;fillColor=none;top=0;left=0;bottom=0;right=0;overflow=hidden;pointerEvents=1;" vertex="1" parent="FY8OjrovpsQSVtT9R5It-146">
          <mxGeometry x="760" width="100" height="40" as="geometry" />
        </mxCell>
        <mxCell id="FY8OjrovpsQSVtT9R5It-188" value="&lt;span&gt;Varchar2&lt;/span&gt;" style="shape=partialRectangle;html=1;whiteSpace=wrap;connectable=0;fillColor=none;top=0;left=0;bottom=0;right=0;overflow=hidden;pointerEvents=1;" vertex="1" parent="FY8OjrovpsQSVtT9R5It-146">
          <mxGeometry x="860" width="100" height="40" as="geometry" />
        </mxCell>
        <mxCell id="FY8OjrovpsQSVtT9R5It-191" value="&lt;span&gt;NUMBER&lt;/span&gt;" style="shape=partialRectangle;html=1;whiteSpace=wrap;connectable=0;fillColor=none;top=0;left=0;bottom=0;right=0;overflow=hidden;pointerEvents=1;" vertex="1" parent="FY8OjrovpsQSVtT9R5It-146">
          <mxGeometry x="960" width="100" height="40" as="geometry" />
        </mxCell>
        <mxCell id="FY8OjrovpsQSVtT9R5It-206" value="Varchar2&lt;span style=&quot;color: rgba(0 , 0 , 0 , 0) ; font-family: monospace ; font-size: 0px&quot;&gt;3CmxGraphModel%3E%3Croot%3E%3CmxCell%20id%3D%220%22%2F%3E%3CmxCell%20id%3D%221%22%20parent%3D%220%22%2F%3E%3CmxCell%20id%3D%222%22%20value%3D%22%26lt%3Bspan%26gt%3BVarchar2%26lt%3B%2Fspan%26gt%3B%22%20style%3D%22shape%3DpartialRectangle%3Bhtml%3D1%3BwhiteSpace%3Dwrap%3Bconnectable%3D0%3BfillColor%3Dnone%3Btop%3D0%3Bleft%3D0%3Bbottom%3D0%3Bright%3D0%3Boverflow%3Dhidden%3BpointerEvents%3D1%3B%22%20vertex%3D%221%22%20parent%3D%221%22%3E%3CmxGeometry%20x%3D%221110%22%20y%3D%22580%22%20width%3D%22100%22%20height%3D%2240%22%20as%3D%22geometry%22%2F%3E%3C%2FmxCell%3E%3C%2Froot%3E%3C%2FmxGraphModel%3E&lt;/span&gt;" style="shape=partialRectangle;html=1;whiteSpace=wrap;connectable=0;fillColor=none;top=0;left=0;bottom=0;right=0;overflow=hidden;pointerEvents=1;" vertex="1" parent="FY8OjrovpsQSVtT9R5It-146">
          <mxGeometry x="1060" width="100" height="40" as="geometry" />
        </mxCell>
        <mxCell id="FY8OjrovpsQSVtT9R5It-234" value="Number" style="shape=partialRectangle;html=1;whiteSpace=wrap;connectable=0;fillColor=none;top=0;left=0;bottom=0;right=0;overflow=hidden;pointerEvents=1;" vertex="1" parent="FY8OjrovpsQSVtT9R5It-146">
          <mxGeometry x="1160" width="100" height="40" as="geometry" />
        </mxCell>
        <mxCell id="FY8OjrovpsQSVtT9R5It-163" value="" style="shape=partialRectangle;html=1;whiteSpace=wrap;collapsible=0;dropTarget=0;pointerEvents=0;fillColor=none;top=0;left=0;bottom=0;right=0;points=[[0,0.5],[1,0.5]];portConstraint=eastwest;" vertex="1" parent="FY8OjrovpsQSVtT9R5It-128">
          <mxGeometry y="80" width="1260" height="40" as="geometry" />
        </mxCell>
        <mxCell id="FY8OjrovpsQSVtT9R5It-164" value="Пример" style="shape=partialRectangle;html=1;whiteSpace=wrap;connectable=0;fillColor=none;top=0;left=0;bottom=0;right=0;overflow=hidden;pointerEvents=1;fontStyle=1;fontSize=14;" vertex="1" parent="FY8OjrovpsQSVtT9R5It-163">
          <mxGeometry width="90" height="40" as="geometry" />
        </mxCell>
        <mxCell id="FY8OjrovpsQSVtT9R5It-174" value="ММБ" style="shape=partialRectangle;html=1;whiteSpace=wrap;connectable=0;fillColor=none;top=0;left=0;bottom=0;right=0;overflow=hidden;pointerEvents=1;" vertex="1" parent="FY8OjrovpsQSVtT9R5It-163">
          <mxGeometry x="90" width="70" height="40" as="geometry" />
        </mxCell>
        <mxCell id="FY8OjrovpsQSVtT9R5It-175" value="2" style="shape=partialRectangle;html=1;whiteSpace=wrap;connectable=0;fillColor=none;top=0;left=0;bottom=0;right=0;overflow=hidden;pointerEvents=1;" vertex="1" parent="FY8OjrovpsQSVtT9R5It-163">
          <mxGeometry x="160" width="100" height="40" as="geometry" />
        </mxCell>
        <mxCell id="FY8OjrovpsQSVtT9R5It-176" value="Банк" style="shape=partialRectangle;html=1;whiteSpace=wrap;connectable=0;fillColor=none;top=0;left=0;bottom=0;right=0;overflow=hidden;pointerEvents=1;" vertex="1" parent="FY8OjrovpsQSVtT9R5It-163">
          <mxGeometry x="260" width="100" height="40" as="geometry" />
        </mxCell>
        <mxCell id="FY8OjrovpsQSVtT9R5It-177" value="1" style="shape=partialRectangle;html=1;whiteSpace=wrap;connectable=0;fillColor=none;top=0;left=0;bottom=0;right=0;overflow=hidden;pointerEvents=1;" vertex="1" parent="FY8OjrovpsQSVtT9R5It-163">
          <mxGeometry x="360" width="100" height="40" as="geometry" />
        </mxCell>
        <mxCell id="FY8OjrovpsQSVtT9R5It-178" value="Сбереги бизнес" style="shape=partialRectangle;html=1;whiteSpace=wrap;connectable=0;fillColor=none;top=0;left=0;bottom=0;right=0;overflow=hidden;pointerEvents=1;" vertex="1" parent="FY8OjrovpsQSVtT9R5It-163">
          <mxGeometry x="460" width="100" height="40" as="geometry" />
        </mxCell>
        <mxCell id="FY8OjrovpsQSVtT9R5It-179" value="1" style="shape=partialRectangle;html=1;whiteSpace=wrap;connectable=0;fillColor=none;top=0;left=0;bottom=0;right=0;overflow=hidden;pointerEvents=1;" vertex="1" parent="FY8OjrovpsQSVtT9R5It-163">
          <mxGeometry x="560" width="100" height="40" as="geometry" />
        </mxCell>
        <mxCell id="FY8OjrovpsQSVtT9R5It-183" value="&lt;span&gt;Январь&lt;/span&gt;" style="shape=partialRectangle;html=1;whiteSpace=wrap;connectable=0;fillColor=none;top=0;left=0;bottom=0;right=0;overflow=hidden;pointerEvents=1;" vertex="1" parent="FY8OjrovpsQSVtT9R5It-163">
          <mxGeometry x="660" width="100" height="40" as="geometry" />
        </mxCell>
        <mxCell id="FY8OjrovpsQSVtT9R5It-186" value="202101" style="shape=partialRectangle;html=1;whiteSpace=wrap;connectable=0;fillColor=none;top=0;left=0;bottom=0;right=0;overflow=hidden;pointerEvents=1;" vertex="1" parent="FY8OjrovpsQSVtT9R5It-163">
          <mxGeometry x="760" width="100" height="40" as="geometry" />
        </mxCell>
        <mxCell id="FY8OjrovpsQSVtT9R5It-189" value="1 квартал" style="shape=partialRectangle;html=1;whiteSpace=wrap;connectable=0;fillColor=none;top=0;left=0;bottom=0;right=0;overflow=hidden;pointerEvents=1;" vertex="1" parent="FY8OjrovpsQSVtT9R5It-163">
          <mxGeometry x="860" width="100" height="40" as="geometry" />
        </mxCell>
        <mxCell id="FY8OjrovpsQSVtT9R5It-192" value="20211" style="shape=partialRectangle;html=1;whiteSpace=wrap;connectable=0;fillColor=none;top=0;left=0;bottom=0;right=0;overflow=hidden;pointerEvents=1;" vertex="1" parent="FY8OjrovpsQSVtT9R5It-163">
          <mxGeometry x="960" width="100" height="40" as="geometry" />
        </mxCell>
        <mxCell id="FY8OjrovpsQSVtT9R5It-207" value="TB" style="shape=partialRectangle;html=1;whiteSpace=wrap;connectable=0;fillColor=none;top=0;left=0;bottom=0;right=0;overflow=hidden;pointerEvents=1;" vertex="1" parent="FY8OjrovpsQSVtT9R5It-163">
          <mxGeometry x="1060" width="100" height="40" as="geometry" />
        </mxCell>
        <mxCell id="FY8OjrovpsQSVtT9R5It-235" value="16233" style="shape=partialRectangle;html=1;whiteSpace=wrap;connectable=0;fillColor=none;top=0;left=0;bottom=0;right=0;overflow=hidden;pointerEvents=1;" vertex="1" parent="FY8OjrovpsQSVtT9R5It-163">
          <mxGeometry x="1160" width="100" height="40" as="geometry" />
        </mxCell>
        <mxCell id="FY8OjrovpsQSVtT9R5It-180" value="Справочник фильтров" style="text;strokeColor=none;fillColor=none;html=1;fontSize=24;fontStyle=1;verticalAlign=middle;align=center;" vertex="1" parent="1">
          <mxGeometry x="590" y="460" width="100" height="40" as="geometry" />
        </mxCell>
        <mxCell id="FY8OjrovpsQSVtT9R5It-203" value="Таблица" style="shape=cylinder3;whiteSpace=wrap;html=1;boundedLbl=1;backgroundOutline=1;size=15;flipV=0;" vertex="1" parent="1">
          <mxGeometry x="400" y="230" width="60" height="80" as="geometry" />
        </mxCell>
        <mxCell id="FY8OjrovpsQSVtT9R5It-225" value="" style="swimlane;startSize=0;fontSize=14;" vertex="1" parent="1">
          <mxGeometry x="60" y="220" width="200" height="200" as="geometry" />
        </mxCell>
        <mxCell id="FY8OjrovpsQSVtT9R5It-237" value="&lt;font style=&quot;font-size: 18px&quot;&gt;&lt;b&gt;Общая витрина&lt;/b&gt;&lt;/font&gt;" style="text;html=1;align=center;verticalAlign=middle;resizable=0;points=[];autosize=1;strokeColor=none;fillColor=none;fontSize=14;" vertex="1" parent="FY8OjrovpsQSVtT9R5It-225">
          <mxGeometry x="10" y="77" width="160" height="20" as="geometry" />
        </mxCell>
        <mxCell id="FY8OjrovpsQSVtT9R5It-238" value="" style="shape=image;html=1;verticalLabelPosition=bottom;verticalAlign=top;imageAspect=1;aspect=fixed;image=img/clipart/Gear_128x128.png;fontSize=14;" vertex="1" parent="FY8OjrovpsQSVtT9R5It-225">
          <mxGeometry x="64" y="120" width="52" height="61" as="geometry" />
        </mxCell>
        <mxCell id="FY8OjrovpsQSVtT9R5It-227" value="" style="endArrow=classic;html=1;fontSize=14;" edge="1" parent="1">
          <mxGeometry width="50" height="50" relative="1" as="geometry">
            <mxPoint x="270" y="300" as="sourcePoint" />
            <mxPoint x="370" y="270" as="targetPoint" />
            <Array as="points">
              <mxPoint x="300" y="270" />
            </Array>
          </mxGeometry>
        </mxCell>
        <mxCell id="FY8OjrovpsQSVtT9R5It-229" value="" style="endArrow=classic;startArrow=classic;html=1;fontSize=14;" edge="1" parent="1">
          <mxGeometry width="50" height="50" relative="1" as="geometry">
            <mxPoint x="210" y="510" as="sourcePoint" />
            <mxPoint x="150" y="430" as="targetPoint" />
          </mxGeometry>
        </mxCell>
      </root>
    </mxGraphModel>
  </diagram>
</mxfile>
